<svg height="510" width="720" xmlns="http://www.w3.org/2000/svg">
<rect height="510" fill="#555" width="720"></rect>
<text fill="#7f7" font-family="Courier New" font-size="12" xml:space="preserve">
<tspan x="10" y="26">2 megabytes installed</tspan>
<tspan x="10" y="42"></tspan>
<tspan x="10" y="58">node_modules</tspan>
<tspan x="10" y="74">└─┬ package-json-to-readme@2.0.0 </tspan>
<tspan x="10" y="90">  ├─┬ github-url-to-object@1.6.0 </tspan>
<tspan x="10" y="106">  │ └── is-url@1.2.2 </tspan>
<tspan x="10" y="122">  ├── hogan.js@2.0.0 </tspan>
<tspan x="10" y="138">  ├─┬ strip-ansi@0.2.2 </tspan>
<tspan x="10" y="154">  │ └── ansi-regex@0.1.0 </tspan>
<tspan x="10" y="170">  ├── sync-exec@0.5.0 </tspan>
<tspan x="10" y="186">  └─┬ yargs@3.32.0 </tspan>
<tspan x="10" y="202">    ├── camelcase@2.1.1 </tspan>
<tspan x="10" y="218">    ├─┬ cliui@3.2.0 </tspan>
<tspan x="10" y="234">    │ ├─┬ strip-ansi@3.0.1 </tspan>
<tspan x="10" y="250">    │ │ └── ansi-regex@2.1.1 </tspan>
<tspan x="10" y="266">    │ └─┬ wrap-ansi@2.1.0 </tspan>
<tspan x="10" y="282">    │   └─┬ strip-ansi@3.0.1 </tspan>
<tspan x="10" y="298">    │     └── ansi-regex@2.1.1 </tspan>
<tspan x="10" y="314">    ├── decamelize@1.2.0 </tspan>
<tspan x="10" y="330">    ├─┬ os-locale@1.4.0 </tspan>
<tspan x="10" y="346">    │ └─┬ lcid@1.0.0 </tspan>
<tspan x="10" y="362">    │   └── invert-kv@1.0.0 </tspan>
<tspan x="10" y="378">    ├─┬ string-width@1.0.2 </tspan>
<tspan x="10" y="394">    │ ├── code-point-at@1.1.0 </tspan>
<tspan x="10" y="410">    │ ├─┬ is-fullwidth-code-point@1.0.0 </tspan>
<tspan x="10" y="426">    │ │ └── number-is-nan@1.0.1 </tspan>
<tspan x="10" y="442">    │ └─┬ strip-ansi@3.0.1 </tspan>
<tspan x="10" y="458">    │   └── ansi-regex@2.1.1 </tspan>
<tspan x="10" y="474">    ├── window-size@0.1.4 </tspan>
<tspan x="10" y="490">    └── y18n@3.2.1</tspan>
</text>
</svg>
